<svg xmlns="http://www.w3.org/2000/svg" xmlns:xlink="http://www.w3.org/1999/xlink" width="500" zoomAndPan="magnify" viewBox="0 0 375 374.999991" height="500" preserveAspectRatio="xMidYMid meet" version="1.0"><defs><clipPath id="id1"><path d="M 25.382812 25.382812 L 349.382812 25.382812 L 349.382812 349.382812 L 25.382812 349.382812 Z M 25.382812 25.382812 " clip-rule="nonzero"/></clipPath></defs><g clip-path="url(#id1)"><path fill="rgb(1.568604%, 2.349854%, 2.349854%)" d="M 308.882812 187.382812 C 295.910156 187.382812 284.578125 176.050781 284.578125 163.078125 C 284.578125 150.132812 295.910156 138.773438 308.882812 138.773438 C 321.855469 138.773438 333.191406 150.132812 333.191406 163.078125 C 333.191406 176.050781 321.855469 187.382812 308.882812 187.382812 Z M 308.882812 122.578125 C 286.1875 122.578125 268.382812 140.410156 268.382812 163.078125 C 268.382812 182.523438 282.96875 198.71875 300.800781 201.96875 L 300.800781 244.078125 C 300.800781 292.691406 260.300781 333.191406 211.691406 333.191406 C 163.078125 333.191406 122.578125 292.691406 122.578125 244.078125 L 122.578125 235.964844 C 167.9375 231.132812 203.578125 193.855469 203.578125 146.882812 L 203.578125 33.496094 C 203.578125 28.632812 200.355469 25.382812 195.464844 25.382812 L 163.078125 25.382812 C 158.21875 25.382812 154.996094 28.632812 154.996094 33.496094 C 154.996094 38.355469 158.21875 41.578125 163.078125 41.578125 L 187.382812 41.578125 L 187.382812 146.882812 C 187.382812 187.382812 154.996094 219.800781 114.496094 219.800781 C 73.996094 219.800781 41.578125 187.382812 41.578125 146.882812 L 41.578125 41.578125 L 65.882812 41.578125 C 70.746094 41.578125 73.996094 38.355469 73.996094 33.496094 C 73.996094 28.632812 70.746094 25.382812 65.882812 25.382812 L 33.496094 25.382812 C 28.632812 25.382812 25.382812 28.632812 25.382812 33.496094 L 25.382812 146.882812 C 25.382812 193.855469 61.023438 231.132812 106.382812 235.964844 L 106.382812 244.078125 C 106.382812 302.410156 153.355469 349.382812 211.691406 349.382812 C 269.996094 349.382812 316.964844 302.410156 316.964844 244.078125 L 316.964844 201.96875 C 334.800781 198.71875 349.382812 182.523438 349.382812 163.078125 C 349.382812 140.410156 331.578125 122.578125 308.882812 122.578125 " fill-opacity="1" fill-rule="nonzero"/></g></svg>